# Blender v2.90.0 OBJ File: 'GJM-WGJ-234-Models.blend'
# www.blender.org
mtllib GJM-WGJ-234-Tile_Green.mtl
o Tile_Block_(Green)_Cube.004
v -0.840000 4.000001 0.840000
v -0.850000 3.300001 1.000000
v -0.840000 4.000001 -0.840000
v -0.850000 3.300001 -1.000000
v 0.840000 4.000001 0.840000
v 0.850000 3.300001 1.000000
v 0.840000 4.000001 -0.840000
v 1.000000 3.300001 -0.850000
v -0.840000 0.000001 0.840000
v -0.850000 0.700001 1.000000
v -0.850000 0.700001 -1.000000
v -0.840000 0.000001 -0.840000
v 0.850000 0.700001 1.000000
v 0.840000 0.000001 0.840000
v 1.000000 0.700001 -0.850000
v 0.840000 0.000001 -0.840000
v -1.000000 3.300001 0.850000
v 1.000000 3.300001 0.850000
v 1.000000 0.700001 0.850000
v -1.000000 0.700001 0.850000
v 1.000000 3.600001 1.000000
v 0.850000 3.300001 -1.000000
v 0.850000 0.700001 -1.000000
v 1.000000 0.400001 1.000000
v 1.000000 3.600001 -1.000000
v -1.000000 3.300001 -0.850000
v -1.000000 0.700001 -0.850000
v 1.000000 0.400001 -1.000000
v -1.000000 3.600001 -1.000000
v -1.000000 3.600001 1.000000
v -1.000000 0.400001 1.000000
v -1.000000 0.400001 -1.000000
v 0.900000 3.300001 0.850000
v 0.900000 3.300001 -0.850000
v 0.900000 0.700001 -0.850000
v 0.900000 0.700001 0.850000
v -0.850000 3.300001 0.900000
v 0.850000 3.300001 0.900000
v 0.850000 0.700001 0.900000
v -0.850000 0.700001 0.900000
v 0.850000 3.300001 -0.900000
v -0.850000 3.300001 -0.900000
v -0.850000 0.700001 -0.900000
v 0.850000 0.700001 -0.900000
v -0.900000 3.300001 -0.850000
v -0.900000 3.300001 0.850000
v -0.900000 0.700001 0.850000
v -0.900000 0.700001 -0.850000
vt 0.635000 0.522500
vt 0.815000 0.522500
vt 0.815000 0.702500
vt 0.635000 0.702500
vt 0.426875 0.291875
vt 0.573125 0.291875
vt 0.573125 0.291875
vt 0.426875 0.291875
vt 0.573125 0.741875
vt 0.573125 0.933125
vt 0.573125 0.933125
vt 0.573125 0.741875
vt 0.426875 0.516875
vt 0.573125 0.516875
vt 0.573125 0.516875
vt 0.426875 0.516875
vt 0.837500 0.500000
vt 0.837500 0.725000
vt 0.612500 0.500000
vt 0.590000 0.725000
vt 0.590000 0.500000
vt 0.612500 0.725000
vt 0.573125 0.258125
vt 0.426875 0.258125
vt 0.426875 0.258125
vt 0.573125 0.258125
vt 0.185000 0.522500
vt 0.185000 0.702500
vt 0.162500 0.725000
vt 0.162500 0.500000
vt 0.365000 0.522500
vt 0.387500 0.500000
vt 0.365000 0.702500
vt 0.410000 0.500000
vt 0.410000 0.725000
vt 0.387500 0.725000
vt 0.590000 0.950000
vt 0.426875 0.741875
vt 0.426875 0.933125
vt 0.410000 0.950000
vt 0.573125 0.708125
vt 0.426875 0.708125
vt 0.573125 0.483125
vt 0.590000 0.275000
vt 0.426875 0.483125
vt 0.410000 0.275000
vt 0.573125 0.066875
vt 0.590000 0.050000
vt 0.426875 0.066875
vt 0.410000 0.050000
vt 0.573125 0.708125
vt 0.426875 0.708125
vt 0.426875 0.741875
vt 0.426875 0.933125
vt 0.573125 0.483125
vt 0.426875 0.483125
vt 0.426875 0.066875
vt 0.573125 0.066875
vn 0.0000 1.0000 0.0000
vn 1.0000 0.0000 0.0000
vn 0.0000 -1.0000 0.0000
vn 0.0000 0.0000 1.0000
vn -0.9285 0.3714 0.0000
vn 0.0000 0.3714 -0.9285
vn 0.9285 0.3714 0.0000
vn 0.0000 0.3714 0.9285
vn -0.9285 -0.3714 0.0000
vn 0.0000 -0.3714 -0.9285
vn 0.9285 -0.3714 0.0000
vn 0.0000 -0.3714 0.9285
vn 0.0000 0.0000 -1.0000
vn -1.0000 0.0000 0.0000
usemtl Tile_(Green)
s off
f 7/1/1 3/2/1 1/3/1 5/4/1
f 11/5/2 4/6/2 42/7/2 43/8/2
f 6/9/3 2/10/3 37/11/3 38/12/3
f 15/13/4 8/14/4 34/15/4 35/16/4
f 1/3/5 3/2/5 29/17/5 30/18/5
f 3/2/6 7/1/6 25/19/6 29/17/6
f 7/1/7 5/4/7 21/20/7 25/21/7
f 5/4/8 1/3/8 30/18/8 21/22/8
f 26/23/4 27/24/4 48/25/4 45/26/4
f 12/27/9 9/28/9 31/29/9 32/30/9
f 16/31/10 12/27/10 32/30/10 28/32/10
f 14/33/11 16/31/11 28/34/11 24/35/11
f 9/28/12 14/33/12 24/36/12 31/29/12
f 12/27/3 16/31/3 14/33/3 9/28/3
f 2/10/4 6/9/4 21/20/4 30/37/4
f 13/38/4 10/39/4 31/40/4 24/35/4
f 6/9/4 13/38/4 24/35/4 21/20/4
f 10/39/4 2/10/4 30/37/4 31/40/4
f 18/41/2 8/14/2 25/21/2 21/20/2
f 15/13/2 19/42/2 24/35/2 28/34/2
f 19/42/2 18/41/2 21/20/2 24/35/2
f 8/14/2 15/13/2 28/34/2 25/21/2
f 22/43/13 4/6/13 29/44/13 25/21/13
f 11/5/13 23/45/13 28/34/13 32/46/13
f 4/6/13 11/5/13 32/46/13 29/44/13
f 23/45/13 22/43/13 25/21/13 28/34/13
f 26/23/14 17/47/14 30/48/14 29/44/14
f 20/49/14 27/24/14 32/46/14 31/50/14
f 17/47/14 20/49/14 31/50/14 30/48/14
f 27/24/14 26/23/14 29/44/14 32/46/14
f 35/16/2 34/15/2 33/51/2 36/52/2
f 19/42/1 15/13/1 35/16/1 36/52/1
f 18/41/13 19/42/13 36/52/13 33/51/13
f 8/14/3 18/41/3 33/51/3 34/15/3
f 39/53/4 38/12/4 37/11/4 40/54/4
f 2/10/2 10/39/2 40/54/2 37/11/2
f 10/39/1 13/38/1 39/53/1 40/54/1
f 13/38/14 6/9/14 38/12/14 39/53/14
f 43/8/13 42/7/13 41/55/13 44/56/13
f 4/6/3 22/43/3 41/55/3 42/7/3
f 22/43/14 23/45/14 44/56/14 41/55/14
f 23/45/1 11/5/1 43/8/1 44/56/1
f 47/57/14 46/58/14 45/26/14 48/25/14
f 27/24/1 20/49/1 47/57/1 48/25/1
f 20/49/13 17/47/13 46/58/13 47/57/13
f 17/47/3 26/23/3 45/26/3 46/58/3
